<mxfile host="app.diagrams.net" modified="2024-04-30T07:42:16.402Z" agent="Mozilla/5.0 (Windows NT 10.0; Win64; x64) AppleWebKit/537.36 (KHTML, like Gecko) Chrome/124.0.0.0 Safari/537.36" etag="m5LhTj85rMG7ywCvv6_W" version="24.2.1" type="device">
  <diagram id="C5RBs43oDa-KdzZeNtuy" name="Page-1">
    <mxGraphModel dx="1285" dy="807" grid="1" gridSize="10" guides="1" tooltips="1" connect="1" arrows="1" fold="1" page="1" pageScale="1" pageWidth="827" pageHeight="1169" math="0" shadow="0">
      <root>
        <mxCell id="WIyWlLk6GJQsqaUBKTNV-0" />
        <mxCell id="WIyWlLk6GJQsqaUBKTNV-1" parent="WIyWlLk6GJQsqaUBKTNV-0" />
        <mxCell id="XP7vlpLz3e3B16v4iNjw-3" style="edgeStyle=orthogonalEdgeStyle;rounded=0;orthogonalLoop=1;jettySize=auto;html=1;exitX=0.5;exitY=1;exitDx=0;exitDy=0;entryX=0.5;entryY=0;entryDx=0;entryDy=0;" edge="1" parent="WIyWlLk6GJQsqaUBKTNV-1" source="XP7vlpLz3e3B16v4iNjw-0" target="XP7vlpLz3e3B16v4iNjw-1">
          <mxGeometry relative="1" as="geometry" />
        </mxCell>
        <mxCell id="XP7vlpLz3e3B16v4iNjw-0" value="&lt;div&gt;[로그인]&lt;/div&gt;&lt;div&gt;&lt;br&gt;&lt;/div&gt;프로그램 시작" style="ellipse;whiteSpace=wrap;html=1;" vertex="1" parent="WIyWlLk6GJQsqaUBKTNV-1">
          <mxGeometry x="90" y="30" width="120" height="80" as="geometry" />
        </mxCell>
        <mxCell id="XP7vlpLz3e3B16v4iNjw-1" value="ID 유무" style="rhombus;whiteSpace=wrap;html=1;" vertex="1" parent="WIyWlLk6GJQsqaUBKTNV-1">
          <mxGeometry x="110" y="150" width="80" height="80" as="geometry" />
        </mxCell>
        <mxCell id="XP7vlpLz3e3B16v4iNjw-6" value="No" style="endArrow=classic;html=1;rounded=0;exitX=0.5;exitY=1;exitDx=0;exitDy=0;" edge="1" parent="WIyWlLk6GJQsqaUBKTNV-1" source="XP7vlpLz3e3B16v4iNjw-1">
          <mxGeometry x="-0.2" width="50" height="50" relative="1" as="geometry">
            <mxPoint x="150" y="270" as="sourcePoint" />
            <mxPoint x="150" y="280" as="targetPoint" />
            <mxPoint as="offset" />
          </mxGeometry>
        </mxCell>
        <mxCell id="XP7vlpLz3e3B16v4iNjw-7" value="ID 생성" style="shape=parallelogram;perimeter=parallelogramPerimeter;whiteSpace=wrap;html=1;fixedSize=1;" vertex="1" parent="WIyWlLk6GJQsqaUBKTNV-1">
          <mxGeometry x="90" y="280" width="120" height="60" as="geometry" />
        </mxCell>
        <mxCell id="XP7vlpLz3e3B16v4iNjw-9" value="" style="endArrow=classic;html=1;rounded=0;exitX=0.5;exitY=1;exitDx=0;exitDy=0;entryX=0.5;entryY=0;entryDx=0;entryDy=0;" edge="1" parent="WIyWlLk6GJQsqaUBKTNV-1" source="XP7vlpLz3e3B16v4iNjw-11" target="XP7vlpLz3e3B16v4iNjw-13">
          <mxGeometry width="50" height="50" relative="1" as="geometry">
            <mxPoint x="170" y="350" as="sourcePoint" />
            <mxPoint x="220" y="300" as="targetPoint" />
          </mxGeometry>
        </mxCell>
        <mxCell id="XP7vlpLz3e3B16v4iNjw-10" value="접속" style="ellipse;whiteSpace=wrap;html=1;" vertex="1" parent="WIyWlLk6GJQsqaUBKTNV-1">
          <mxGeometry x="90" y="630" width="120" height="80" as="geometry" />
        </mxCell>
        <mxCell id="XP7vlpLz3e3B16v4iNjw-12" value="" style="endArrow=classic;html=1;rounded=0;exitX=0.5;exitY=1;exitDx=0;exitDy=0;entryX=0.5;entryY=0;entryDx=0;entryDy=0;" edge="1" parent="WIyWlLk6GJQsqaUBKTNV-1" source="XP7vlpLz3e3B16v4iNjw-7" target="XP7vlpLz3e3B16v4iNjw-11">
          <mxGeometry width="50" height="50" relative="1" as="geometry">
            <mxPoint x="150" y="340" as="sourcePoint" />
            <mxPoint x="150" y="450" as="targetPoint" />
          </mxGeometry>
        </mxCell>
        <mxCell id="XP7vlpLz3e3B16v4iNjw-11" value="Nick Name 설정" style="shape=parallelogram;perimeter=parallelogramPerimeter;whiteSpace=wrap;html=1;fixedSize=1;" vertex="1" parent="WIyWlLk6GJQsqaUBKTNV-1">
          <mxGeometry x="90" y="390" width="120" height="60" as="geometry" />
        </mxCell>
        <mxCell id="XP7vlpLz3e3B16v4iNjw-16" style="edgeStyle=orthogonalEdgeStyle;rounded=0;orthogonalLoop=1;jettySize=auto;html=1;exitX=0.5;exitY=1;exitDx=0;exitDy=0;entryX=0.5;entryY=0;entryDx=0;entryDy=0;" edge="1" parent="WIyWlLk6GJQsqaUBKTNV-1" source="XP7vlpLz3e3B16v4iNjw-13" target="XP7vlpLz3e3B16v4iNjw-10">
          <mxGeometry relative="1" as="geometry" />
        </mxCell>
        <mxCell id="XP7vlpLz3e3B16v4iNjw-17" value="Yes" style="edgeLabel;html=1;align=center;verticalAlign=middle;resizable=0;points=[];" vertex="1" connectable="0" parent="XP7vlpLz3e3B16v4iNjw-16">
          <mxGeometry x="-0.1333" y="1" relative="1" as="geometry">
            <mxPoint x="-1" as="offset" />
          </mxGeometry>
        </mxCell>
        <mxCell id="XP7vlpLz3e3B16v4iNjw-13" value="Login" style="rhombus;whiteSpace=wrap;html=1;" vertex="1" parent="WIyWlLk6GJQsqaUBKTNV-1">
          <mxGeometry x="110" y="500" width="80" height="80" as="geometry" />
        </mxCell>
        <mxCell id="XP7vlpLz3e3B16v4iNjw-14" value="Yes" style="endArrow=classic;html=1;rounded=0;exitX=1;exitY=0.5;exitDx=0;exitDy=0;entryX=1;entryY=0.5;entryDx=0;entryDy=0;" edge="1" parent="WIyWlLk6GJQsqaUBKTNV-1" source="XP7vlpLz3e3B16v4iNjw-1" target="XP7vlpLz3e3B16v4iNjw-13">
          <mxGeometry x="-0.0213" width="50" height="50" relative="1" as="geometry">
            <mxPoint x="170" y="450" as="sourcePoint" />
            <mxPoint x="220" y="400" as="targetPoint" />
            <Array as="points">
              <mxPoint x="250" y="190" />
              <mxPoint x="250" y="540" />
            </Array>
            <mxPoint as="offset" />
          </mxGeometry>
        </mxCell>
        <mxCell id="XP7vlpLz3e3B16v4iNjw-18" style="edgeStyle=orthogonalEdgeStyle;rounded=0;orthogonalLoop=1;jettySize=auto;html=1;exitX=0;exitY=0.5;exitDx=0;exitDy=0;entryX=0;entryY=0.5;entryDx=0;entryDy=0;" edge="1" parent="WIyWlLk6GJQsqaUBKTNV-1" source="XP7vlpLz3e3B16v4iNjw-13" target="XP7vlpLz3e3B16v4iNjw-1">
          <mxGeometry relative="1" as="geometry">
            <mxPoint x="60" y="180" as="targetPoint" />
            <Array as="points">
              <mxPoint x="50" y="540" />
              <mxPoint x="50" y="190" />
            </Array>
          </mxGeometry>
        </mxCell>
        <mxCell id="XP7vlpLz3e3B16v4iNjw-19" value="No" style="edgeLabel;html=1;align=center;verticalAlign=middle;resizable=0;points=[];" vertex="1" connectable="0" parent="XP7vlpLz3e3B16v4iNjw-18">
          <mxGeometry x="0.0369" y="2" relative="1" as="geometry">
            <mxPoint as="offset" />
          </mxGeometry>
        </mxCell>
        <mxCell id="XP7vlpLz3e3B16v4iNjw-22" style="edgeStyle=orthogonalEdgeStyle;rounded=0;orthogonalLoop=1;jettySize=auto;html=1;exitX=0.5;exitY=1;exitDx=0;exitDy=0;entryX=0.5;entryY=0;entryDx=0;entryDy=0;" edge="1" parent="WIyWlLk6GJQsqaUBKTNV-1" source="XP7vlpLz3e3B16v4iNjw-38" target="XP7vlpLz3e3B16v4iNjw-21">
          <mxGeometry relative="1" as="geometry" />
        </mxCell>
        <mxCell id="XP7vlpLz3e3B16v4iNjw-20" value="[매칭]&lt;div&gt;[Java]&lt;/div&gt;&lt;div&gt;매칭 시작&lt;/div&gt;" style="ellipse;whiteSpace=wrap;html=1;" vertex="1" parent="WIyWlLk6GJQsqaUBKTNV-1">
          <mxGeometry x="531.25" y="30" width="120" height="80" as="geometry" />
        </mxCell>
        <mxCell id="XP7vlpLz3e3B16v4iNjw-31" value="" style="edgeStyle=orthogonalEdgeStyle;rounded=0;orthogonalLoop=1;jettySize=auto;html=1;" edge="1" parent="WIyWlLk6GJQsqaUBKTNV-1" source="XP7vlpLz3e3B16v4iNjw-21" target="XP7vlpLz3e3B16v4iNjw-30">
          <mxGeometry relative="1" as="geometry" />
        </mxCell>
        <mxCell id="XP7vlpLz3e3B16v4iNjw-21" value="[DB]&lt;div&gt;Wait Table에&lt;br&gt;유저 삽입&lt;/div&gt;" style="shape=parallelogram;perimeter=parallelogramPerimeter;whiteSpace=wrap;html=1;fixedSize=1;" vertex="1" parent="WIyWlLk6GJQsqaUBKTNV-1">
          <mxGeometry x="511.25" y="300" width="160" height="60" as="geometry" />
        </mxCell>
        <mxCell id="XP7vlpLz3e3B16v4iNjw-33" value="" style="edgeStyle=orthogonalEdgeStyle;rounded=0;orthogonalLoop=1;jettySize=auto;html=1;" edge="1" parent="WIyWlLk6GJQsqaUBKTNV-1" source="XP7vlpLz3e3B16v4iNjw-30" target="XP7vlpLz3e3B16v4iNjw-32">
          <mxGeometry relative="1" as="geometry" />
        </mxCell>
        <mxCell id="XP7vlpLz3e3B16v4iNjw-34" value="Yes" style="edgeLabel;html=1;align=center;verticalAlign=middle;resizable=0;points=[];" vertex="1" connectable="0" parent="XP7vlpLz3e3B16v4iNjw-33">
          <mxGeometry x="-0.2133" y="-3" relative="1" as="geometry">
            <mxPoint as="offset" />
          </mxGeometry>
        </mxCell>
        <mxCell id="XP7vlpLz3e3B16v4iNjw-36" value="" style="edgeStyle=orthogonalEdgeStyle;rounded=0;orthogonalLoop=1;jettySize=auto;html=1;" edge="1" parent="WIyWlLk6GJQsqaUBKTNV-1" source="XP7vlpLz3e3B16v4iNjw-30" target="XP7vlpLz3e3B16v4iNjw-35">
          <mxGeometry relative="1" as="geometry" />
        </mxCell>
        <mxCell id="XP7vlpLz3e3B16v4iNjw-37" value="No" style="edgeLabel;html=1;align=center;verticalAlign=middle;resizable=0;points=[];" vertex="1" connectable="0" parent="XP7vlpLz3e3B16v4iNjw-36">
          <mxGeometry x="-0.2205" y="1" relative="1" as="geometry">
            <mxPoint as="offset" />
          </mxGeometry>
        </mxCell>
        <mxCell id="XP7vlpLz3e3B16v4iNjw-30" value="[DB]&lt;div&gt;매칭이 되었는가?&lt;/div&gt;&lt;div&gt;(대기중인&lt;/div&gt;&lt;div&gt;유저가&lt;/div&gt;&lt;div&gt;있는가?)&lt;/div&gt;" style="rhombus;whiteSpace=wrap;html=1;" vertex="1" parent="WIyWlLk6GJQsqaUBKTNV-1">
          <mxGeometry x="516.25" y="410" width="150" height="150" as="geometry" />
        </mxCell>
        <mxCell id="XP7vlpLz3e3B16v4iNjw-105" style="edgeStyle=orthogonalEdgeStyle;rounded=0;orthogonalLoop=1;jettySize=auto;html=1;exitX=0.5;exitY=1;exitDx=0;exitDy=0;entryX=0.5;entryY=0;entryDx=0;entryDy=0;" edge="1" parent="WIyWlLk6GJQsqaUBKTNV-1" source="XP7vlpLz3e3B16v4iNjw-32" target="XP7vlpLz3e3B16v4iNjw-62">
          <mxGeometry relative="1" as="geometry" />
        </mxCell>
        <mxCell id="XP7vlpLz3e3B16v4iNjw-32" value="[DB&lt;span style=&quot;background-color: initial;&quot;&gt;]&lt;/span&gt;&lt;div&gt;&lt;span style=&quot;background-color: initial;&quot;&gt;Wait Table의&lt;/span&gt;&lt;div&gt;&lt;div&gt;State 컬럼&lt;/div&gt;&lt;div&gt;0 =&amp;gt; 1 변경&lt;/div&gt;&lt;/div&gt;&lt;/div&gt;" style="shape=parallelogram;perimeter=parallelogramPerimeter;whiteSpace=wrap;html=1;fixedSize=1;" vertex="1" parent="WIyWlLk6GJQsqaUBKTNV-1">
          <mxGeometry x="531.25" y="620" width="120" height="60" as="geometry" />
        </mxCell>
        <mxCell id="XP7vlpLz3e3B16v4iNjw-59" style="edgeStyle=orthogonalEdgeStyle;rounded=0;orthogonalLoop=1;jettySize=auto;html=1;exitX=0.5;exitY=1;exitDx=0;exitDy=0;entryX=0.5;entryY=0;entryDx=0;entryDy=0;" edge="1" parent="WIyWlLk6GJQsqaUBKTNV-1" source="XP7vlpLz3e3B16v4iNjw-35" target="XP7vlpLz3e3B16v4iNjw-42">
          <mxGeometry relative="1" as="geometry" />
        </mxCell>
        <mxCell id="XP7vlpLz3e3B16v4iNjw-35" value="[Java]&lt;div&gt;1초마다&lt;/div&gt;&lt;div&gt;Wait Table의&lt;/div&gt;&lt;div&gt;State 확인&lt;br&gt;&lt;/div&gt;" style="rounded=1;whiteSpace=wrap;html=1;" vertex="1" parent="WIyWlLk6GJQsqaUBKTNV-1">
          <mxGeometry x="716.25" y="440" width="120" height="90" as="geometry" />
        </mxCell>
        <mxCell id="XP7vlpLz3e3B16v4iNjw-39" value="" style="edgeStyle=orthogonalEdgeStyle;rounded=0;orthogonalLoop=1;jettySize=auto;html=1;exitX=0.5;exitY=1;exitDx=0;exitDy=0;entryX=0.5;entryY=0;entryDx=0;entryDy=0;" edge="1" parent="WIyWlLk6GJQsqaUBKTNV-1" source="XP7vlpLz3e3B16v4iNjw-20" target="XP7vlpLz3e3B16v4iNjw-38">
          <mxGeometry relative="1" as="geometry">
            <mxPoint x="591.25" y="110" as="sourcePoint" />
            <mxPoint x="591.25" y="320" as="targetPoint" />
          </mxGeometry>
        </mxCell>
        <mxCell id="XP7vlpLz3e3B16v4iNjw-38" value="[DB]&lt;div&gt;Update Date가&lt;/div&gt;&lt;div&gt;현재 시간과&lt;/div&gt;&lt;div&gt;2초 이상 차이나는&lt;/div&gt;&lt;div&gt;Row 제거&lt;/div&gt;" style="shape=hexagon;perimeter=hexagonPerimeter2;whiteSpace=wrap;html=1;fixedSize=1;" vertex="1" parent="WIyWlLk6GJQsqaUBKTNV-1">
          <mxGeometry x="516.25" y="150" width="150" height="100" as="geometry" />
        </mxCell>
        <mxCell id="XP7vlpLz3e3B16v4iNjw-44" value="" style="edgeStyle=orthogonalEdgeStyle;rounded=0;orthogonalLoop=1;jettySize=auto;html=1;entryX=0;entryY=0.5;entryDx=0;entryDy=0;" edge="1" parent="WIyWlLk6GJQsqaUBKTNV-1" source="XP7vlpLz3e3B16v4iNjw-42" target="XP7vlpLz3e3B16v4iNjw-48">
          <mxGeometry relative="1" as="geometry">
            <mxPoint x="826.25" y="585" as="targetPoint" />
          </mxGeometry>
        </mxCell>
        <mxCell id="XP7vlpLz3e3B16v4iNjw-45" value="No" style="edgeLabel;html=1;align=center;verticalAlign=middle;resizable=0;points=[];" vertex="1" connectable="0" parent="XP7vlpLz3e3B16v4iNjw-44">
          <mxGeometry x="-0.1143" y="-5" relative="1" as="geometry">
            <mxPoint as="offset" />
          </mxGeometry>
        </mxCell>
        <mxCell id="XP7vlpLz3e3B16v4iNjw-106" style="edgeStyle=orthogonalEdgeStyle;rounded=0;orthogonalLoop=1;jettySize=auto;html=1;exitX=0.5;exitY=1;exitDx=0;exitDy=0;entryX=1;entryY=0.5;entryDx=0;entryDy=0;" edge="1" parent="WIyWlLk6GJQsqaUBKTNV-1" source="XP7vlpLz3e3B16v4iNjw-42" target="XP7vlpLz3e3B16v4iNjw-62">
          <mxGeometry relative="1" as="geometry" />
        </mxCell>
        <mxCell id="XP7vlpLz3e3B16v4iNjw-107" value="Yes" style="edgeLabel;html=1;align=center;verticalAlign=middle;resizable=0;points=[];" vertex="1" connectable="0" parent="XP7vlpLz3e3B16v4iNjw-106">
          <mxGeometry x="-0.4407" relative="1" as="geometry">
            <mxPoint x="2" y="-20" as="offset" />
          </mxGeometry>
        </mxCell>
        <mxCell id="XP7vlpLz3e3B16v4iNjw-42" value="[Java]&lt;div&gt;&lt;div&gt;&amp;nbsp;Wait Table의&lt;/div&gt;&lt;/div&gt;&lt;div&gt;State 컬럼이&lt;/div&gt;&lt;div&gt;1로 변경이&lt;/div&gt;&lt;div&gt;되었는가?&lt;/div&gt;" style="rhombus;whiteSpace=wrap;html=1;" vertex="1" parent="WIyWlLk6GJQsqaUBKTNV-1">
          <mxGeometry x="701.25" y="565" width="150" height="150" as="geometry" />
        </mxCell>
        <mxCell id="XP7vlpLz3e3B16v4iNjw-48" value="&lt;div&gt;&amp;nbsp;[Java]&lt;/div&gt;&lt;div&gt;Update Date 갱신&lt;/div&gt;" style="rounded=1;whiteSpace=wrap;html=1;" vertex="1" parent="WIyWlLk6GJQsqaUBKTNV-1">
          <mxGeometry x="901.25" y="610" width="120" height="60" as="geometry" />
        </mxCell>
        <mxCell id="XP7vlpLz3e3B16v4iNjw-55" value="" style="edgeStyle=orthogonalEdgeStyle;rounded=0;orthogonalLoop=1;jettySize=auto;html=1;" edge="1" parent="WIyWlLk6GJQsqaUBKTNV-1" source="XP7vlpLz3e3B16v4iNjw-52" target="XP7vlpLz3e3B16v4iNjw-54">
          <mxGeometry relative="1" as="geometry" />
        </mxCell>
        <mxCell id="XP7vlpLz3e3B16v4iNjw-56" value="No" style="edgeLabel;html=1;align=center;verticalAlign=middle;resizable=0;points=[];" vertex="1" connectable="0" parent="XP7vlpLz3e3B16v4iNjw-55">
          <mxGeometry x="-0.2667" y="-1" relative="1" as="geometry">
            <mxPoint as="offset" />
          </mxGeometry>
        </mxCell>
        <mxCell id="XP7vlpLz3e3B16v4iNjw-52" value="[Java]&lt;div&gt;User가&lt;/div&gt;&lt;div&gt;수락을&lt;/div&gt;&lt;div&gt;눌렀는가?&lt;/div&gt;" style="rhombus;whiteSpace=wrap;html=1;" vertex="1" parent="WIyWlLk6GJQsqaUBKTNV-1">
          <mxGeometry x="531.25" y="830" width="120" height="120" as="geometry" />
        </mxCell>
        <mxCell id="XP7vlpLz3e3B16v4iNjw-54" value="[Java]&lt;div&gt;Wait Table에서&amp;nbsp;&lt;span style=&quot;background-color: initial;&quot;&gt;제거&lt;/span&gt;&lt;br&gt;&lt;/div&gt;" style="whiteSpace=wrap;html=1;" vertex="1" parent="WIyWlLk6GJQsqaUBKTNV-1">
          <mxGeometry x="716.25" y="860" width="155" height="60" as="geometry" />
        </mxCell>
        <mxCell id="XP7vlpLz3e3B16v4iNjw-98" style="edgeStyle=orthogonalEdgeStyle;rounded=0;orthogonalLoop=1;jettySize=auto;html=1;exitX=0.5;exitY=1;exitDx=0;exitDy=0;entryX=0.5;entryY=0;entryDx=0;entryDy=0;" edge="1" parent="WIyWlLk6GJQsqaUBKTNV-1" source="XP7vlpLz3e3B16v4iNjw-62" target="XP7vlpLz3e3B16v4iNjw-52">
          <mxGeometry relative="1" as="geometry" />
        </mxCell>
        <mxCell id="XP7vlpLz3e3B16v4iNjw-108" style="edgeStyle=orthogonalEdgeStyle;rounded=0;orthogonalLoop=1;jettySize=auto;html=1;exitX=0;exitY=0.5;exitDx=0;exitDy=0;entryX=1;entryY=0.5;entryDx=0;entryDy=0;" edge="1" parent="WIyWlLk6GJQsqaUBKTNV-1" source="XP7vlpLz3e3B16v4iNjw-62" target="XP7vlpLz3e3B16v4iNjw-104">
          <mxGeometry relative="1" as="geometry" />
        </mxCell>
        <mxCell id="XP7vlpLz3e3B16v4iNjw-62" value="&lt;div&gt;&amp;nbsp;[Java]&lt;/div&gt;&lt;div&gt;User에게&lt;/div&gt;&lt;div&gt;수락 요청&lt;/div&gt;&lt;div&gt;Msg 출력&lt;/div&gt;" style="rounded=1;whiteSpace=wrap;html=1;" vertex="1" parent="WIyWlLk6GJQsqaUBKTNV-1">
          <mxGeometry x="531.25" y="730" width="120" height="60" as="geometry" />
        </mxCell>
        <mxCell id="XP7vlpLz3e3B16v4iNjw-71" value="" style="edgeStyle=orthogonalEdgeStyle;rounded=0;orthogonalLoop=1;jettySize=auto;html=1;entryX=0.5;entryY=0;entryDx=0;entryDy=0;" edge="1" parent="WIyWlLk6GJQsqaUBKTNV-1" source="XP7vlpLz3e3B16v4iNjw-52" target="XP7vlpLz3e3B16v4iNjw-57">
          <mxGeometry relative="1" as="geometry">
            <mxPoint x="591.25" y="950" as="sourcePoint" />
            <mxPoint x="491.25" y="1155" as="targetPoint" />
          </mxGeometry>
        </mxCell>
        <mxCell id="XP7vlpLz3e3B16v4iNjw-72" value="Yes" style="edgeLabel;html=1;align=center;verticalAlign=middle;resizable=0;points=[];" vertex="1" connectable="0" parent="XP7vlpLz3e3B16v4iNjw-71">
          <mxGeometry x="-0.2933" y="1" relative="1" as="geometry">
            <mxPoint x="-1" y="5" as="offset" />
          </mxGeometry>
        </mxCell>
        <mxCell id="XP7vlpLz3e3B16v4iNjw-110" style="edgeStyle=orthogonalEdgeStyle;rounded=0;orthogonalLoop=1;jettySize=auto;html=1;exitX=0.5;exitY=1;exitDx=0;exitDy=0;entryX=0.5;entryY=0;entryDx=0;entryDy=0;" edge="1" parent="WIyWlLk6GJQsqaUBKTNV-1" source="XP7vlpLz3e3B16v4iNjw-57" target="XP7vlpLz3e3B16v4iNjw-109">
          <mxGeometry relative="1" as="geometry" />
        </mxCell>
        <mxCell id="XP7vlpLz3e3B16v4iNjw-57" value="[Java]&lt;div&gt;Wait Table의&lt;/div&gt;&lt;div&gt;State 컬럼&lt;/div&gt;&lt;div&gt;1=&amp;gt;2 변경&lt;/div&gt;" style="whiteSpace=wrap;html=1;" vertex="1" parent="WIyWlLk6GJQsqaUBKTNV-1">
          <mxGeometry x="531.25" y="1005" width="120" height="60" as="geometry" />
        </mxCell>
        <mxCell id="XP7vlpLz3e3B16v4iNjw-115" style="edgeStyle=orthogonalEdgeStyle;rounded=0;orthogonalLoop=1;jettySize=auto;html=1;exitX=0.5;exitY=1;exitDx=0;exitDy=0;entryX=0.5;entryY=0;entryDx=0;entryDy=0;" edge="1" parent="WIyWlLk6GJQsqaUBKTNV-1" source="XP7vlpLz3e3B16v4iNjw-73" target="XP7vlpLz3e3B16v4iNjw-114">
          <mxGeometry relative="1" as="geometry" />
        </mxCell>
        <mxCell id="XP7vlpLz3e3B16v4iNjw-73" value="[DB]&lt;div&gt;Room Table에 삽입&lt;/div&gt;&lt;div&gt;및&amp;nbsp;&lt;span style=&quot;background-color: initial;&quot;&gt;부가 Table 생성&lt;/span&gt;&lt;/div&gt;" style="shape=parallelogram;perimeter=parallelogramPerimeter;whiteSpace=wrap;html=1;fixedSize=1;" vertex="1" parent="WIyWlLk6GJQsqaUBKTNV-1">
          <mxGeometry x="515" y="1400" width="150" height="70" as="geometry" />
        </mxCell>
        <mxCell id="XP7vlpLz3e3B16v4iNjw-87" value="게임 시작" style="ellipse;whiteSpace=wrap;html=1;" vertex="1" parent="WIyWlLk6GJQsqaUBKTNV-1">
          <mxGeometry x="531.25" y="1610" width="120" height="80" as="geometry" />
        </mxCell>
        <mxCell id="XP7vlpLz3e3B16v4iNjw-113" style="edgeStyle=orthogonalEdgeStyle;rounded=0;orthogonalLoop=1;jettySize=auto;html=1;exitX=0.5;exitY=1;exitDx=0;exitDy=0;entryX=0.5;entryY=0;entryDx=0;entryDy=0;" edge="1" parent="WIyWlLk6GJQsqaUBKTNV-1" source="XP7vlpLz3e3B16v4iNjw-102" target="XP7vlpLz3e3B16v4iNjw-73">
          <mxGeometry relative="1" as="geometry" />
        </mxCell>
        <mxCell id="XP7vlpLz3e3B16v4iNjw-102" value="[DB]&lt;div&gt;Wait Table의&lt;/div&gt;&lt;div&gt;State 컬럼&lt;/div&gt;&lt;div&gt;2=&amp;gt;3 변경&lt;/div&gt;" style="shape=parallelogram;perimeter=parallelogramPerimeter;whiteSpace=wrap;html=1;fixedSize=1;" vertex="1" parent="WIyWlLk6GJQsqaUBKTNV-1">
          <mxGeometry x="500" y="1270" width="182.5" height="100" as="geometry" />
        </mxCell>
        <mxCell id="XP7vlpLz3e3B16v4iNjw-104" value="[DB]&lt;div&gt;[Delay 5초]&lt;br&gt;(State가 2로 변경되지 않은&lt;/div&gt;&lt;div&gt;컬럼 삭제 및&amp;nbsp;&lt;/div&gt;&lt;div&gt;남은 유저의 State 컬럼&amp;nbsp;&lt;/div&gt;&lt;div&gt;0으로 초기화)&lt;/div&gt;" style="shape=parallelogram;perimeter=parallelogramPerimeter;whiteSpace=wrap;html=1;fixedSize=1;" vertex="1" parent="WIyWlLk6GJQsqaUBKTNV-1">
          <mxGeometry x="310" y="715" width="186.25" height="90" as="geometry" />
        </mxCell>
        <mxCell id="XP7vlpLz3e3B16v4iNjw-111" style="edgeStyle=orthogonalEdgeStyle;rounded=0;orthogonalLoop=1;jettySize=auto;html=1;exitX=0.5;exitY=1;exitDx=0;exitDy=0;entryX=0.5;entryY=0;entryDx=0;entryDy=0;" edge="1" parent="WIyWlLk6GJQsqaUBKTNV-1" source="XP7vlpLz3e3B16v4iNjw-109" target="XP7vlpLz3e3B16v4iNjw-102">
          <mxGeometry relative="1" as="geometry" />
        </mxCell>
        <mxCell id="XP7vlpLz3e3B16v4iNjw-112" value="Yes" style="edgeLabel;html=1;align=center;verticalAlign=middle;resizable=0;points=[];" vertex="1" connectable="0" parent="XP7vlpLz3e3B16v4iNjw-111">
          <mxGeometry x="-0.1237" relative="1" as="geometry">
            <mxPoint as="offset" />
          </mxGeometry>
        </mxCell>
        <mxCell id="XP7vlpLz3e3B16v4iNjw-117" style="edgeStyle=orthogonalEdgeStyle;rounded=0;orthogonalLoop=1;jettySize=auto;html=1;exitX=1;exitY=0.5;exitDx=0;exitDy=0;entryX=1;entryY=0.5;entryDx=0;entryDy=0;" edge="1" parent="WIyWlLk6GJQsqaUBKTNV-1" source="XP7vlpLz3e3B16v4iNjw-109" target="XP7vlpLz3e3B16v4iNjw-35">
          <mxGeometry relative="1" as="geometry">
            <Array as="points">
              <mxPoint x="1040" y="1160" />
              <mxPoint x="1040" y="485" />
            </Array>
          </mxGeometry>
        </mxCell>
        <mxCell id="XP7vlpLz3e3B16v4iNjw-118" value="No" style="edgeLabel;html=1;align=center;verticalAlign=middle;resizable=0;points=[];" vertex="1" connectable="0" parent="XP7vlpLz3e3B16v4iNjw-117">
          <mxGeometry x="-0.9093" y="1" relative="1" as="geometry">
            <mxPoint x="-8" y="1" as="offset" />
          </mxGeometry>
        </mxCell>
        <mxCell id="XP7vlpLz3e3B16v4iNjw-109" value="[DB]&lt;div&gt;매칭에&lt;/div&gt;&lt;div&gt;성공했는가?&lt;/div&gt;" style="rhombus;whiteSpace=wrap;html=1;" vertex="1" parent="WIyWlLk6GJQsqaUBKTNV-1">
          <mxGeometry x="531.25" y="1100" width="120" height="120" as="geometry" />
        </mxCell>
        <mxCell id="XP7vlpLz3e3B16v4iNjw-116" style="edgeStyle=orthogonalEdgeStyle;rounded=0;orthogonalLoop=1;jettySize=auto;html=1;exitX=0.5;exitY=1;exitDx=0;exitDy=0;entryX=0.5;entryY=0;entryDx=0;entryDy=0;" edge="1" parent="WIyWlLk6GJQsqaUBKTNV-1" source="XP7vlpLz3e3B16v4iNjw-114" target="XP7vlpLz3e3B16v4iNjw-87">
          <mxGeometry relative="1" as="geometry" />
        </mxCell>
        <mxCell id="XP7vlpLz3e3B16v4iNjw-114" value="[Java]&lt;div&gt;Wait Table의&lt;/div&gt;&lt;div&gt;State 컬럼&lt;/div&gt;&lt;div&gt;3 확인 후 Wait Table 삭제&lt;/div&gt;" style="whiteSpace=wrap;html=1;" vertex="1" parent="WIyWlLk6GJQsqaUBKTNV-1">
          <mxGeometry x="510" y="1510" width="160" height="70" as="geometry" />
        </mxCell>
      </root>
    </mxGraphModel>
  </diagram>
</mxfile>
